<svg width="430" height="257" viewBox="0 0 430 257" fill="none" xmlns="http://www.w3.org/2000/svg">
<path d="M318.117 53.1152C297.254 53.1152 281.271 58.7617 270.17 70.0547C259.068 81.3477 248.254 101.732 237.727 131.209C227.199 160.686 216.193 183.271 204.709 198.967C193.033 214.471 179.826 226.146 165.088 233.994C150.158 241.65 133.123 245.479 113.982 245.479C80.8691 245.479 53.5938 234.473 32.1563 212.461C10.7188 190.258 9.98046e-07 161.26 1.37357e-06 125.467C1.63061e-06 100.967 5.55078 79.1465 16.6523 60.0059C27.5625 40.8652 42.7793 26.127 62.3027 15.791C81.8262 5.45508 103.264 0.28711 126.615 0.287111L126.615 53.1152C100.775 53.1152 80.7734 59.3359 66.6094 71.7773C52.4453 84.2188 45.3633 102.115 45.3633 125.467C45.3633 146.713 51.2969 163.174 63.1641 174.85C75.0313 186.525 91.6836 192.363 113.121 192.363C130.73 192.363 145.469 186.047 157.336 173.414C169.203 160.781 179.826 141.258 189.205 114.844C202.795 73.6914 219.543 44.3105 239.449 26.7012C259.355 8.90039 285.387 2.99414e-06 317.543 3.33151e-06C351.422 3.68695e-06 378.602 11.0059 399.082 33.0176C419.371 55.0293 429.516 84.9844 429.516 122.883C429.516 147.191 424.252 169.682 413.725 190.354C403.006 210.834 388.076 227.008 368.936 238.875C349.604 250.551 327.496 256.389 302.613 256.389L302.613 203.561C328.453 203.561 348.551 196.383 362.906 182.027C377.262 167.48 384.439 147.766 384.439 122.883C384.439 99.7227 378.506 82.3047 366.639 70.6289C354.771 58.9531 338.598 53.1152 318.117 53.1152Z" fill="#2965FF"/>
</svg>
